<?xml version="1.0" encoding="utf-8"?>

<!-- Uploaded to: SVG Repo, www.svgrepo.com, Generator: SVG Repo Mixer Tools -->
<svg width="800px" height="800px" viewBox="0 -0.02 20.109 20.109" xmlns="http://www.w3.org/2000/svg">
  <g id="edit-user-6" transform="translate(-2 -2.016)">
    <path id="secondary" fill="#1F283E" d="M20.71,16.09,15.8,21H13V18.2l4.91-4.91a1,1,0,0,1,1.4,0l1.4,1.4A1,1,0,0,1,20.71,16.09Z"/>
    <path id="primary" d="M20.71,16.09,15.8,21H13V18.2l4.91-4.91a1,1,0,0,1,1.4,0l1.4,1.4A1,1,0,0,1,20.71,16.09Z" fill="none" stroke="#E0E0E0" stroke-linecap="round" stroke-linejoin="round" stroke-width="2"/>
    <path id="primary-2" data-name="primary" d="M17,9.27A2.44,2.44,0,0,0,17,9a6,6,0,1,0-6.44,6" fill="none" stroke="#E0E0E0" stroke-linecap="round" stroke-linejoin="round" stroke-width="2"/>
    <path id="primary-3" data-name="primary" d="M9,21c-4.45-.37-6-2-6-2V18a5,5,0,0,1,3.49-4.75" fill="none" stroke="#E0E0E0" stroke-linecap="round" stroke-linejoin="round" stroke-width="2"/>
  </g>
</svg>